<svg version="1.1" id="Layer_1" xmlns="http://www.w3.org/2000/svg" xmlns:xlink="http://www.w3.org/1999/xlink" x="0px" y="0px"
	 width="100%" viewBox="0 0 576 580" enable-background="new 0 0 576 580" xml:space="preserve">
<path fill="#070606" opacity="1.000000" stroke="none" 
	d="
M323.000000,581.000000 
	C215.333328,581.000000 108.166664,581.000000 1.000000,581.000000 
	C1.000000,387.666656 1.000000,194.333328 1.000000,1.000000 
	C193.000000,1.000000 385.000000,1.000000 577.000000,1.000000 
	C577.000000,194.333328 577.000000,387.666656 577.000000,581.000000 
	C492.500000,581.000000 408.000000,581.000000 323.000000,581.000000 
M371.001129,243.303772 
	C358.680420,243.205688 346.359283,243.141571 334.039368,242.982239 
	C331.423615,242.948410 330.035889,243.651215 330.044098,246.611725 
	C330.106873,269.261566 330.097931,291.911774 330.027252,314.561615 
	C330.019073,317.184082 331.091064,317.933319 333.566895,318.113678 
	C345.951385,319.015686 345.947052,319.075104 345.961639,306.895233 
	C345.962616,306.062500 345.963257,305.229797 345.963898,304.397064 
	C345.974213,291.374603 345.973663,291.450378 359.183807,291.546265 
	C362.160156,291.567871 364.030304,292.345581 365.562408,295.116180 
	C369.185181,301.667389 373.171295,308.021301 377.132935,314.378693 
	C377.968933,315.720276 379.262695,317.654877 380.459351,317.741425 
	C385.615631,318.114197 390.814301,317.900757 396.962646,317.900757 
	C393.554321,312.391876 390.752563,307.898041 387.986145,303.382507 
	C385.139954,298.736755 382.328278,294.069885 379.790863,289.889099 
	C383.473663,286.009613 387.554993,283.043457 389.855072,279.051056 
	C398.685120,263.724213 390.492432,247.873413 371.001129,243.303772 
M515.556763,261.371704 
	C515.410645,263.581573 515.264526,265.791412 515.195557,266.834320 
	C508.258026,265.129028 501.895721,262.819214 495.366425,262.157623 
	C487.959106,261.407013 481.934784,265.327057 477.118347,270.859161 
	C468.983521,280.202789 467.510864,297.624329 475.107758,307.816498 
	C486.717987,323.392914 500.788269,323.329590 516.190063,311.234375 
	C515.214539,317.600983 518.108887,318.685394 522.488647,318.068817 
	C523.302551,317.954224 524.178223,317.961212 524.979858,318.129333 
	C529.799194,319.140167 530.909790,316.966278 530.870178,312.437958 
	C530.692322,292.111542 530.831299,271.782349 530.857605,251.454163 
	C530.872559,239.884949 530.873901,239.885056 519.402954,240.677185 
	C519.236938,240.688660 518.994019,240.614777 518.914795,240.699799 
	C517.775146,241.922638 515.778320,243.105774 515.688721,244.414902 
	C515.325500,249.721420 515.550232,255.068192 515.556763,261.371704 
M186.863525,314.691345 
	C198.753632,322.518433 209.647385,320.583984 219.803299,310.640259 
	C219.986847,313.411316 220.124969,315.496521 220.274017,317.746582 
	C224.705826,317.746582 228.816223,317.746582 233.226898,317.746582 
	C233.226898,292.186584 233.226898,266.770538 233.226898,241.155228 
	C228.736771,241.155228 224.453674,241.155228 219.457031,241.155228 
	C219.457031,250.511368 219.457031,259.808289 219.457031,269.817047 
	C217.614548,268.412323 216.605301,267.593292 215.546951,266.843567 
	C203.006332,257.959656 187.052963,261.645264 179.612183,275.136139 
	C172.364609,288.276672 175.036667,303.939667 186.863525,314.691345 
M431.630096,262.005859 
	C418.857574,262.614105 410.103821,269.233643 406.145386,281.022522 
	C402.257904,292.600128 404.426025,303.534943 413.854919,312.055298 
	C424.919617,322.053741 442.515808,321.642975 456.110596,314.552155 
	C457.054352,314.059937 457.900513,312.021454 457.679901,310.926025 
	C457.144897,308.269501 455.953308,305.745239 455.327789,304.005920 
	C448.046936,305.278229 441.604004,307.109436 435.099884,307.361694 
	C427.017151,307.675232 421.172821,302.612610 420.995361,295.904724 
	C422.938751,295.904724 424.871033,295.902466 426.803345,295.905090 
	C436.961792,295.918823 447.122467,295.817596 457.277466,296.011841 
	C460.805573,296.079346 461.777069,294.802643 461.862701,291.378510 
	C462.237061,276.407135 451.700897,260.956848 431.630096,262.005859 
M44.394600,261.897339 
	C35.888050,279.716980 39.065262,299.108154 52.331455,310.337555 
	C65.019936,321.077942 88.787956,322.609863 102.096390,313.352661 
	C101.043236,309.854492 99.963799,306.269043 98.825867,302.489288 
	C83.922470,307.860657 69.625404,310.998566 58.474606,296.525574 
	C52.135979,288.298401 52.234161,273.726013 58.728436,265.473267 
	C69.653732,251.589661 83.522797,254.122269 97.812981,259.758514 
	C98.680107,257.532684 99.499893,255.564896 100.211899,253.558823 
	C100.813148,251.864807 101.289383,250.126404 101.799164,248.478088 
	C85.742752,238.925629 56.289890,240.396576 44.394600,261.897339 
M266.586182,295.825897 
	C277.830627,295.825897 289.075104,295.825897 300.209167,295.825897 
	C302.156464,282.525452 296.345062,270.059998 286.296387,265.110748 
	C275.107513,259.599915 261.288391,261.779266 253.059738,270.352386 
	C244.492905,279.277832 242.548996,293.850586 248.485626,304.642487 
	C257.183502,320.453949 280.807739,324.503906 297.315735,312.772034 
	C296.124115,309.643951 294.903015,306.438599 293.681488,303.232056 
	C274.178864,310.788574 260.594421,307.825806 260.150116,295.825867 
	C261.979919,295.825867 263.799683,295.825867 266.586182,295.825897 
M142.950089,262.355194 
	C140.795609,262.259216 138.629303,261.967957 136.488495,262.097626 
	C116.477142,263.309937 103.373726,282.887970 110.549141,300.775757 
	C115.940315,314.215546 129.651062,321.661743 144.074478,318.983063 
	C157.758072,316.441803 167.501556,304.823151 167.704224,290.805664 
	C167.907745,276.728729 158.735870,265.882965 142.950089,262.355194 
M280.136169,235.312546 
	C281.805603,236.106415 283.475067,236.900299 285.676056,237.946945 
	C281.790009,222.769547 283.962555,213.961029 292.816742,208.179611 
	C300.943481,216.561249 304.963745,225.726929 297.544373,238.057663 
	C308.126648,234.039322 314.242188,227.900421 316.338989,218.433655 
	C318.283539,209.654404 316.846985,201.398697 310.819000,193.954407 
	C308.695068,195.904694 306.922638,197.532227 304.564453,199.697617 
	C302.086639,195.079330 299.232452,191.232681 297.927399,186.917526 
	C296.591858,182.501373 296.774261,177.626129 296.274506,172.780045 
	C285.468872,177.988892 282.872925,188.664520 280.446716,199.876404 
	C277.705200,197.584396 275.731567,195.934372 273.782410,194.304810 
	C262.528625,206.172226 265.353973,225.015045 280.136169,235.312546 
M278.433502,347.900574 
	C278.085724,355.263062 277.574646,362.626404 277.613983,369.986816 
	C277.618469,370.828583 280.660858,372.253693 282.366821,372.372498 
	C287.176544,372.707367 292.023956,372.528229 296.856293,372.505005 
	C307.084534,372.455902 307.245026,373.272522 307.106781,363.064941 
	C307.086578,361.570374 307.322205,360.073975 307.347534,358.576874 
	C307.519501,348.412994 307.511536,348.412872 298.786163,346.028320 
	C297.513000,343.941437 296.128601,341.213776 294.167236,340.703400 
	C290.728149,339.808502 286.563324,339.627563 286.816406,345.490051 
	C286.837524,345.979034 285.131531,346.795135 284.129761,347.018188 
	C282.522980,347.375885 280.834045,347.364563 278.433502,347.900574 
M179.512131,353.962616 
	C174.859879,353.022278 169.292252,356.167694 164.823517,350.959534 
	C163.355347,351.828552 161.248550,353.075592 158.461472,354.725311 
	C161.088684,356.464264 163.225388,357.878571 165.362091,359.292847 
	C165.358078,358.713562 165.354065,358.134308 165.350052,357.555023 
	C167.325470,357.058868 169.299576,356.136658 171.276505,356.130554 
	C200.273880,356.040985 229.271652,356.079102 258.269318,356.062012 
	C259.886383,356.061066 261.503357,355.844055 263.120361,355.727631 
	C263.080170,355.139191 263.039978,354.550751 262.999786,353.962311 
	C235.502838,353.962311 208.005875,353.962311 179.512131,353.962616 
M414.425873,357.977600 
	C416.973267,360.321411 419.343109,358.916656 420.556458,356.831177 
	C421.162506,355.789551 420.140045,352.778259 418.970001,352.017120 
	C417.832581,351.277283 415.546234,352.181519 413.799042,352.534912 
	C411.966370,352.905579 410.176208,353.896301 408.365082,353.902222 
	C381.580566,353.989960 354.795685,353.950623 328.010895,353.976227 
	C326.429138,353.977753 324.847687,354.275177 323.266083,354.434875 
	C323.315338,354.977081 323.364594,355.519257 323.413879,356.061462 
	C325.151581,356.061462 326.889313,356.061432 328.627045,356.061462 
	C355.245483,356.062042 381.863983,356.038666 408.482208,356.116028 
	C410.297699,356.121307 412.110992,356.881989 414.425873,357.977600 
M266.632660,343.681366 
	C265.957184,343.338135 265.282715,342.697296 264.606049,342.694946 
	C244.616470,342.625610 224.625229,342.507263 204.639038,342.766541 
	C202.491211,342.794434 200.372620,345.076752 198.240463,346.313293 
	C198.514297,346.917175 198.788116,347.521088 199.061951,348.125000 
	C204.444580,343.110413 210.838959,345.063446 216.870605,344.943390 
	C227.527710,344.731232 238.192337,344.932526 248.853043,344.854095 
	C254.648712,344.811493 260.442749,344.549255 266.632660,343.681366 
M361.500000,344.877441 
	C369.439941,344.877441 377.379883,344.877441 385.319855,344.877441 
	C385.295898,344.332916 385.271912,343.788361 385.247955,343.243835 
	C362.709076,343.243835 340.170197,343.243835 317.631317,343.243835 
	C317.624939,343.788361 317.618561,344.332916 317.612183,344.877441 
	C331.908112,344.877441 346.204071,344.877441 361.500000,344.877441 
M317.166626,417.077820 
	C317.389221,418.771118 317.611847,420.464386 317.834473,422.157684 
	C318.203094,422.088928 318.571686,422.020172 318.940308,421.951416 
	C318.940308,401.915253 318.940308,381.879089 318.940308,361.842926 
	C318.351868,361.839813 317.763397,361.836700 317.174957,361.833588 
	C317.174957,379.949524 317.174957,398.065430 317.166626,417.077820 
M229.809921,393.172333 
	C229.791824,382.685577 229.884048,372.193665 228.694901,361.703369 
	C227.438583,363.197937 227.203613,364.697723 227.193924,366.198975 
	C227.145660,373.671783 227.121857,381.145172 227.159653,388.617981 
	C227.182968,393.230377 227.903122,398.016052 223.038696,401.025055 
	C222.719864,401.222260 222.848602,402.143005 222.748047,402.882568 
	C227.651825,401.134918 229.552277,398.683777 229.809921,393.172333 
M290.981415,404.499817 
	C290.981415,411.568756 290.981415,418.637665 290.981415,425.706604 
	C291.517029,425.680176 292.052643,425.653748 292.588257,425.627350 
	C292.588257,410.578888 292.588257,395.530457 292.588257,380.481995 
	C292.053040,380.472290 291.517853,380.462585 290.982635,380.452881 
	C290.982635,388.135254 290.982635,395.817627 290.981415,404.499817 
M343.224335,394.977386 
	C345.093506,394.354279 347.211914,394.066315 348.713928,392.949463 
	C349.349030,392.477142 349.230743,389.449707 348.522766,388.975586 
	C345.154205,386.719849 346.072388,383.482758 346.026611,380.466919 
	C345.945801,375.142548 346.014374,369.815887 345.932587,364.491547 
	C345.918701,363.586731 345.466187,362.688660 345.216309,361.787476 
	C344.779205,361.841431 344.342102,361.895386 343.904999,361.949341 
	C343.904999,364.868988 344.183441,367.821014 343.848511,370.701721 
	C343.091827,377.209778 346.255829,384.240479 341.182312,390.278473 
	C340.663605,390.895813 342.069183,393.130035 343.224335,394.977386 
M259.886200,387.499756 
	C259.886200,394.237549 259.886200,400.975311 259.886200,407.713104 
	C260.551422,407.699188 261.216644,407.685272 261.881866,407.671356 
	C261.954926,406.121765 262.087006,404.572357 262.091278,403.022583 
	C262.115112,394.356110 261.950562,385.685608 262.169495,377.024506 
	C262.305145,371.659576 260.432922,365.869751 264.990295,361.114319 
	C261.411041,361.631042 259.791168,363.449860 259.856628,367.000793 
	C259.976410,373.498444 259.887360,379.999939 259.886200,387.499756 
M365.057861,375.391663 
	C364.435455,380.780029 365.314178,385.428070 371.874573,387.537048 
	C362.658936,380.421875 369.860870,370.094025 366.495972,361.856964 
	C366.016907,361.877136 365.537811,361.897308 365.058746,361.917480 
	C365.058746,366.088898 365.058746,370.260284 365.057861,375.391663 
M273.996918,392.412292 
	C273.996918,395.448700 273.996918,398.485138 273.996918,401.521545 
	C274.551636,401.486969 275.106384,401.452362 275.661102,401.417786 
	C275.661102,393.300446 275.661102,385.183105 275.661102,377.065796 
	C275.106262,377.052765 274.551453,377.039764 273.996613,377.026733 
	C273.996613,381.832306 273.996613,386.637878 273.996918,392.412292 
M330.036194,382.493225 
	C330.036194,387.289642 330.036194,392.086060 330.036194,396.882477 
	C330.567627,396.854248 331.099030,396.825989 331.630463,396.797760 
	C331.630463,385.220581 331.630463,373.643402 331.630463,362.066223 
	C331.098816,362.050873 330.567169,362.035522 330.035522,362.020172 
	C330.035522,368.511871 330.035522,375.003601 330.036194,382.493225 
M246.429840,396.517059 
	C244.248276,398.582184 243.781097,401.011108 246.253159,402.848389 
	C247.369370,403.677979 250.181137,403.829132 251.022568,403.027435 
	C252.121246,401.980621 252.684601,399.514587 252.286102,397.965973 
	C251.762238,395.930206 250.077896,394.193054 248.762207,392.122253 
	C248.150635,393.539490 247.607376,394.798431 246.429840,396.517059 
M203.050140,364.734924 
	C202.834427,363.792236 202.618729,362.849579 202.403015,361.906891 
	C202.122040,361.952911 201.841080,361.998962 201.560104,362.044983 
	C201.560104,372.405853 201.560104,382.766693 201.560104,393.127563 
	C202.056717,393.136841 202.553314,393.146088 203.049927,393.155365 
	C203.049927,384.003723 203.049927,374.852081 203.050140,364.734924 
M248.106277,362.400757 
	C248.418533,362.850311 248.730789,363.299835 249.043060,363.749390 
	C249.357880,363.465027 249.672699,363.180664 249.987518,362.896301 
	C249.553711,362.575256 249.119919,362.254211 248.106277,362.400757 
z"/>
<path fill="#EE0705" opacity="1.000000" stroke="none" 
	d="
M371.439941,243.360291 
	C390.492432,247.873413 398.685120,263.724213 389.855072,279.051056 
	C387.554993,283.043457 383.473663,286.009613 379.790863,289.889099 
	C382.328278,294.069885 385.139954,298.736755 387.986145,303.382507 
	C390.752563,307.898041 393.554321,312.391876 396.962646,317.900757 
	C390.814301,317.900757 385.615631,318.114197 380.459351,317.741425 
	C379.262695,317.654877 377.968933,315.720276 377.132935,314.378693 
	C373.171295,308.021301 369.185181,301.667389 365.562408,295.116180 
	C364.030304,292.345581 362.160156,291.567871 359.183807,291.546265 
	C345.973663,291.450378 345.974213,291.374603 345.963898,304.397064 
	C345.963257,305.229797 345.962616,306.062500 345.961639,306.895233 
	C345.947052,319.075104 345.951385,319.015686 333.566895,318.113678 
	C331.091064,317.933319 330.019073,317.184082 330.027252,314.561615 
	C330.097931,291.911774 330.106873,269.261566 330.044098,246.611725 
	C330.035889,243.651215 331.423615,242.948410 334.039368,242.982239 
	C346.359283,243.141571 358.680420,243.205688 371.439941,243.360291 
M365.261292,278.230347 
	C373.093323,277.886871 377.005371,274.500793 377.220306,267.879211 
	C377.439758,261.120087 373.840759,257.294678 366.075165,256.698792 
	C360.623871,256.280487 355.127289,256.479858 349.653503,256.316528 
	C346.838501,256.232544 345.842896,257.543274 345.906677,260.250610 
	C346.016144,264.898315 346.058502,269.555450 345.881805,274.199219 
	C345.768280,277.183533 346.783203,278.406464 349.867889,278.290802 
	C354.677551,278.110443 359.498993,278.242493 365.261292,278.230347 
z"/>
<path fill="#ED0806" opacity="1.000000" stroke="none" 
	d="
M515.557434,260.885925 
	C515.550232,255.068192 515.325500,249.721420 515.688721,244.414902 
	C515.778320,243.105774 517.775146,241.922638 518.914795,240.699799 
	C518.994019,240.614777 519.236938,240.688660 519.402954,240.677185 
	C530.873901,239.885056 530.872559,239.884949 530.857605,251.454163 
	C530.831299,271.782349 530.692322,292.111542 530.870178,312.437958 
	C530.909790,316.966278 529.799194,319.140167 524.979858,318.129333 
	C524.178223,317.961212 523.302551,317.954224 522.488647,318.068817 
	C518.108887,318.685394 515.214539,317.600983 516.190063,311.234375 
	C500.788269,323.329590 486.717987,323.392914 475.107758,307.816498 
	C467.510864,297.624329 468.983521,280.202789 477.118347,270.859161 
	C481.934784,265.327057 487.959106,261.407013 495.366425,262.157623 
	C501.895721,262.819214 508.258026,265.129028 515.195557,266.834320 
	C515.264526,265.791412 515.410645,263.581573 515.557434,260.885925 
M502.089111,274.172272 
	C495.830048,273.618347 490.898651,275.968994 487.896179,281.447632 
	C484.555603,287.543121 484.391968,293.899536 488.021881,300.006165 
	C491.089905,305.167480 495.669800,307.562836 501.788330,307.256012 
	C507.988892,306.945007 512.228210,303.852783 514.518616,298.367584 
	C518.321716,289.259735 515.287048,276.089996 502.089111,274.172272 
z"/>
<path fill="#F9F9F9" opacity="1.000000" stroke="none" 
	d="
M186.575104,314.476074 
	C175.036667,303.939667 172.364609,288.276672 179.612183,275.136139 
	C187.052963,261.645264 203.006332,257.959656 215.546951,266.843567 
	C216.605301,267.593292 217.614548,268.412323 219.457031,269.817047 
	C219.457031,259.808289 219.457031,250.511368 219.457031,241.155228 
	C224.453674,241.155228 228.736771,241.155228 233.226898,241.155228 
	C233.226898,266.770538 233.226898,292.186584 233.226898,317.746582 
	C228.816223,317.746582 224.705826,317.746582 220.274017,317.746582 
	C220.124969,315.496521 219.986847,313.411316 219.803299,310.640259 
	C209.647385,320.583984 198.753632,322.518433 186.575104,314.476074 
M207.027939,274.049316 
	C205.703369,274.031067 204.364410,273.878052 203.056656,274.017487 
	C196.678543,274.697357 191.962967,279.148682 190.149597,286.092896 
	C188.321182,293.094788 190.900894,301.029724 196.246445,304.846161 
	C201.075455,308.293793 208.138687,308.584686 213.138016,305.288391 
	C219.506332,301.089478 220.673981,294.680573 219.861618,287.747894 
	C219.018326,280.551483 214.822388,276.075928 207.027939,274.049316 
z"/>
<path fill="#EB0806" opacity="1.000000" stroke="none" 
	d="
M432.097961,261.992859 
	C451.700897,260.956848 462.237061,276.407135 461.862701,291.378510 
	C461.777069,294.802643 460.805573,296.079346 457.277466,296.011841 
	C447.122467,295.817596 436.961792,295.918823 426.803345,295.905090 
	C424.871033,295.902466 422.938751,295.904724 420.995361,295.904724 
	C421.172821,302.612610 427.017151,307.675232 435.099884,307.361694 
	C441.604004,307.109436 448.046936,305.278229 455.327789,304.005920 
	C455.953308,305.745239 457.144897,308.269501 457.679901,310.926025 
	C457.900513,312.021454 457.054352,314.059937 456.110596,314.552155 
	C442.515808,321.642975 424.919617,322.053741 413.854919,312.055298 
	C404.426025,303.534943 402.257904,292.600128 406.145386,281.022522 
	C410.103821,269.233643 418.857574,262.614105 432.097961,261.992859 
M435.980804,273.347107 
	C426.703094,272.945526 420.427521,277.813171 420.547455,285.556580 
	C429.246613,285.556580 437.945862,285.556580 446.626007,285.556580 
	C446.859528,279.068207 444.094910,275.822937 435.980804,273.347107 
z"/>
<path fill="#F8F8F8" opacity="1.000000" stroke="none" 
	d="
M44.588814,261.584717 
	C56.289890,240.396576 85.742752,238.925629 101.799164,248.478088 
	C101.289383,250.126404 100.813148,251.864807 100.211899,253.558823 
	C99.499893,255.564896 98.680107,257.532684 97.812981,259.758514 
	C83.522797,254.122269 69.653732,251.589661 58.728436,265.473267 
	C52.234161,273.726013 52.135979,288.298401 58.474606,296.525574 
	C69.625404,310.998566 83.922470,307.860657 98.825867,302.489288 
	C99.963799,306.269043 101.043236,309.854492 102.096390,313.352661 
	C88.787956,322.609863 65.019936,321.077942 52.331455,310.337555 
	C39.065262,299.108154 35.888050,279.716980 44.588814,261.584717 
z"/>
<path fill="#F6F6F6" opacity="1.000000" stroke="none" 
	d="
M266.102814,295.825867 
	C263.799683,295.825867 261.979919,295.825867 260.150116,295.825867 
	C260.594421,307.825806 274.178864,310.788574 293.681488,303.232056 
	C294.903015,306.438599 296.124115,309.643951 297.315735,312.772034 
	C280.807739,324.503906 257.183502,320.453949 248.485626,304.642487 
	C242.548996,293.850586 244.492905,279.277832 253.059738,270.352386 
	C261.288391,261.779266 275.107513,259.599915 286.296387,265.110748 
	C296.345062,270.059998 302.156464,282.525452 300.209167,295.825897 
	C289.075104,295.825897 277.830627,295.825897 266.102814,295.825867 
M279.413635,286.014008 
	C281.884857,286.014008 284.356110,286.014008 286.840210,286.014008 
	C286.519379,278.623566 281.247528,273.478485 274.021210,273.227325 
	C266.954956,272.981628 259.336975,278.058044 259.574463,285.674805 
	C259.890167,285.769470 260.205414,285.945038 260.521637,285.946869 
	C266.493988,285.981354 272.466461,285.995239 279.413635,286.014008 
z"/>
<path fill="#F7F7F7" opacity="1.000000" stroke="none" 
	d="
M143.374634,262.446533 
	C158.735870,265.882965 167.907745,276.728729 167.704224,290.805664 
	C167.501556,304.823151 157.758072,316.441803 144.074478,318.983063 
	C129.651062,321.661743 115.940315,314.215546 110.549141,300.775757 
	C103.373726,282.887970 116.477142,263.309937 136.488495,262.097626 
	C138.629303,261.967957 140.795609,262.259216 143.374634,262.446533 
M146.161484,276.033936 
	C144.779709,275.471130 143.439728,274.749695 142.008972,274.372864 
	C135.613205,272.688416 128.650879,275.534821 125.113548,281.178864 
	C121.094246,287.591919 121.687057,296.763733 126.470947,302.180145 
	C131.073792,307.391571 138.399338,309.045746 144.657883,306.219482 
	C156.670959,300.794495 157.159805,282.833344 146.161484,276.033936 
z"/>
<path fill="#EC0806" opacity="1.000000" stroke="none" 
	d="
M279.839966,235.113556 
	C265.353973,225.015045 262.528625,206.172226 273.782410,194.304810 
	C275.731567,195.934372 277.705200,197.584396 280.446716,199.876404 
	C282.872925,188.664520 285.468872,177.988892 296.274506,172.780045 
	C296.774261,177.626129 296.591858,182.501373 297.927399,186.917526 
	C299.232452,191.232681 302.086639,195.079330 304.564453,199.697617 
	C306.922638,197.532227 308.695068,195.904694 310.819000,193.954407 
	C316.846985,201.398697 318.283539,209.654404 316.338989,218.433655 
	C314.242188,227.900421 308.126648,234.039322 297.544373,238.057663 
	C304.963745,225.726929 300.943481,216.561249 292.816742,208.179611 
	C283.962555,213.961029 281.790009,222.769547 285.676056,237.946945 
	C283.475067,236.900299 281.805603,236.106415 279.839966,235.113556 
z"/>
<path fill="#DC0F0D" opacity="1.000000" stroke="none" 
	d="
M278.806671,347.704895 
	C280.834045,347.364563 282.522980,347.375885 284.129761,347.018188 
	C285.131531,346.795135 286.837524,345.979034 286.816406,345.490051 
	C286.563324,339.627563 290.728149,339.808502 294.167236,340.703400 
	C296.128601,341.213776 297.513000,343.941437 298.786163,346.028320 
	C307.511536,348.412872 307.519501,348.412994 307.347534,358.576874 
	C307.322205,360.073975 307.086578,361.570374 307.106781,363.064941 
	C307.245026,373.272522 307.084534,372.455902 296.856293,372.505005 
	C292.023956,372.528229 287.176544,372.707367 282.366821,372.372498 
	C280.660858,372.253693 277.618469,370.828583 277.613983,369.986816 
	C277.574646,362.626404 278.085724,355.263062 278.806671,347.704895 
M282.019714,355.633179 
	C282.026550,357.628418 281.755676,359.679443 282.141418,361.598541 
	C282.383789,362.804504 283.587006,364.738342 284.400604,364.759583 
	C289.846619,364.901917 295.502594,365.354584 300.622375,363.972595 
	C301.960907,363.611328 301.657776,357.116974 302.074677,353.435486 
	C302.157959,352.700043 302.086700,351.947144 302.086700,351.035339 
	C296.265503,351.035339 290.792694,351.103210 285.322784,351.006500 
	C282.618256,350.958679 281.794861,352.293671 282.019714,355.633179 
z"/>
<path fill="#DDDEDE" opacity="1.000000" stroke="none" 
	d="
M180.010529,353.962463 
	C208.005875,353.962311 235.502838,353.962311 262.999786,353.962311 
	C263.039978,354.550751 263.080170,355.139191 263.120361,355.727631 
	C261.503357,355.844055 259.886383,356.061066 258.269318,356.062012 
	C229.271652,356.079102 200.273880,356.040985 171.276505,356.130554 
	C169.299576,356.136658 167.325470,357.058868 165.350052,357.555023 
	C165.354065,358.134308 165.358078,358.713562 165.362091,359.292847 
	C163.225388,357.878571 161.088684,356.464264 158.461472,354.725311 
	C161.248550,353.075592 163.355347,351.828552 164.823517,350.959534 
	C169.292252,356.167694 174.859879,353.022278 180.010529,353.962463 
z"/>
<path fill="#E0E1E1" opacity="1.000000" stroke="none" 
	d="
M414.175598,357.634460 
	C412.110992,356.881989 410.297699,356.121307 408.482208,356.116028 
	C381.863983,356.038666 355.245483,356.062042 328.627045,356.061462 
	C326.889313,356.061432 325.151581,356.061462 323.413879,356.061462 
	C323.364594,355.519257 323.315338,354.977081 323.266083,354.434875 
	C324.847687,354.275177 326.429138,353.977753 328.010895,353.976227 
	C354.795685,353.950623 381.580566,353.989960 408.365082,353.902222 
	C410.176208,353.896301 411.966370,352.905579 413.799042,352.534912 
	C415.546234,352.181519 417.832581,351.277283 418.970001,352.017120 
	C420.140045,352.778259 421.162506,355.789551 420.556458,356.831177 
	C419.343109,358.916656 416.973267,360.321411 414.175598,357.634460 
z"/>
<path fill="#D2D2D3" opacity="1.000000" stroke="none" 
	d="
M266.435120,344.033722 
	C260.442749,344.549255 254.648712,344.811493 248.853043,344.854095 
	C238.192337,344.932526 227.527710,344.731232 216.870605,344.943390 
	C210.838959,345.063446 204.444580,343.110413 199.061951,348.125000 
	C198.788116,347.521088 198.514297,346.917175 198.240463,346.313293 
	C200.372620,345.076752 202.491211,342.794434 204.639038,342.766541 
	C224.625229,342.507263 244.616470,342.625610 264.606049,342.694946 
	C265.282715,342.697296 265.957184,343.338135 266.435120,344.033722 
z"/>
<path fill="#D2D2D3" opacity="1.000000" stroke="none" 
	d="
M361.000000,344.877441 
	C346.204071,344.877441 331.908112,344.877441 317.612183,344.877441 
	C317.618561,344.332916 317.624939,343.788361 317.631317,343.243835 
	C340.170197,343.243835 362.709076,343.243835 385.247955,343.243835 
	C385.271912,343.788361 385.295898,344.332916 385.319855,344.877441 
	C377.379883,344.877441 369.439941,344.877441 361.000000,344.877441 
z"/>
<path fill="#C5C5C5" opacity="1.000000" stroke="none" 
	d="
M317.170776,416.629578 
	C317.174957,398.065430 317.174957,379.949524 317.174957,361.833588 
	C317.763397,361.836700 318.351868,361.839813 318.940308,361.842926 
	C318.940308,381.879089 318.940308,401.915253 318.940308,421.951416 
	C318.571686,422.020172 318.203094,422.088928 317.834473,422.157684 
	C317.611847,420.464386 317.389221,418.771118 317.170776,416.629578 
z"/>
<path fill="#B4B4B4" opacity="1.000000" stroke="none" 
	d="
M229.809616,393.624878 
	C229.552277,398.683777 227.651825,401.134918 222.748047,402.882568 
	C222.848602,402.143005 222.719864,401.222260 223.038696,401.025055 
	C227.903122,398.016052 227.182968,393.230377 227.159653,388.617981 
	C227.121857,381.145172 227.145660,373.671783 227.193924,366.198975 
	C227.203613,364.697723 227.438583,363.197937 228.694901,361.703369 
	C229.884048,372.193665 229.791824,382.685577 229.809616,393.624878 
z"/>
<path fill="#D9D9D9" opacity="1.000000" stroke="none" 
	d="
M290.982025,403.999908 
	C290.982635,395.817627 290.982635,388.135254 290.982635,380.452881 
	C291.517853,380.462585 292.053040,380.472290 292.588257,380.481995 
	C292.588257,395.530457 292.588257,410.578888 292.588257,425.627350 
	C292.052643,425.653748 291.517029,425.680176 290.981415,425.706604 
	C290.981415,418.637665 290.981415,411.568756 290.982025,403.999908 
z"/>
<path fill="#D6D6D6" opacity="1.000000" stroke="none" 
	d="
M342.903076,394.795654 
	C342.069183,393.130035 340.663605,390.895813 341.182312,390.278473 
	C346.255829,384.240479 343.091827,377.209778 343.848511,370.701721 
	C344.183441,367.821014 343.904999,364.868988 343.904999,361.949341 
	C344.342102,361.895386 344.779205,361.841431 345.216309,361.787476 
	C345.466187,362.688660 345.918701,363.586731 345.932587,364.491547 
	C346.014374,369.815887 345.945801,375.142548 346.026611,380.466919 
	C346.072388,383.482758 345.154205,386.719849 348.522766,388.975586 
	C349.230743,389.449707 349.349030,392.477142 348.713928,392.949463 
	C347.211914,394.066315 345.093506,394.354279 342.903076,394.795654 
z"/>
<path fill="#DDDEDE" opacity="1.000000" stroke="none" 
	d="
M259.885803,386.999817 
	C259.887360,379.999939 259.976410,373.498444 259.856628,367.000793 
	C259.791168,363.449860 261.411041,361.631042 264.990295,361.114319 
	C260.432922,365.869751 262.305145,371.659576 262.169495,377.024506 
	C261.950562,385.685608 262.115112,394.356110 262.091278,403.022583 
	C262.087006,404.572357 261.954926,406.121765 261.881866,407.671356 
	C261.216644,407.685272 260.551422,407.699188 259.886200,407.713104 
	C259.886200,400.975311 259.886200,394.237549 259.885803,386.999817 
z"/>
<path fill="#D2D2D3" opacity="1.000000" stroke="none" 
	d="
M365.058289,374.911682 
	C365.058746,370.260284 365.058746,366.088898 365.058746,361.917480 
	C365.537811,361.897308 366.016907,361.877136 366.495972,361.856964 
	C369.860870,370.094025 362.658936,380.421875 371.874573,387.537048 
	C365.314178,385.428070 364.435455,380.780029 365.058289,374.911682 
z"/>
<path fill="#DDDEDE" opacity="1.000000" stroke="none" 
	d="
M273.996765,391.927856 
	C273.996613,386.637878 273.996613,381.832306 273.996613,377.026733 
	C274.551453,377.039764 275.106262,377.052765 275.661102,377.065796 
	C275.661102,385.183105 275.661102,393.300446 275.661102,401.417786 
	C275.106384,401.452362 274.551636,401.486969 273.996918,401.521545 
	C273.996918,398.485138 273.996918,395.448700 273.996765,391.927856 
z"/>
<path fill="#D9D9D9" opacity="1.000000" stroke="none" 
	d="
M330.035858,381.994263 
	C330.035522,375.003601 330.035522,368.511871 330.035522,362.020172 
	C330.567169,362.035522 331.098816,362.050873 331.630463,362.066223 
	C331.630463,373.643402 331.630463,385.220581 331.630463,396.797760 
	C331.099030,396.825989 330.567627,396.854248 330.036194,396.882477 
	C330.036194,392.086060 330.036194,387.289642 330.035858,381.994263 
z"/>
<path fill="#CECFCD" opacity="1.000000" stroke="none" 
	d="
M246.746979,396.287231 
	C247.607376,394.798431 248.150635,393.539490 248.762207,392.122253 
	C250.077896,394.193054 251.762238,395.930206 252.286102,397.965973 
	C252.684601,399.514587 252.121246,401.980621 251.022568,403.027435 
	C250.181137,403.829132 247.369370,403.677979 246.253159,402.848389 
	C243.781097,401.011108 244.248276,398.582184 246.746979,396.287231 
z"/>
<path fill="#DDDEDE" opacity="1.000000" stroke="none" 
	d="
M203.050034,365.217682 
	C203.049927,374.852081 203.049927,384.003723 203.049927,393.155365 
	C202.553314,393.146088 202.056717,393.136841 201.560104,393.127563 
	C201.560104,382.766693 201.560104,372.405853 201.560104,362.044983 
	C201.841080,361.998962 202.122040,361.952911 202.403015,361.906891 
	C202.618729,362.849579 202.834427,363.792236 203.050034,365.217682 
z"/>
<path fill="#CECFCD" opacity="1.000000" stroke="none" 
	d="
M248.396194,362.166962 
	C249.119919,362.254211 249.553711,362.575256 249.987518,362.896301 
	C249.672699,363.180664 249.357880,363.465027 249.043060,363.749390 
	C248.730789,363.299835 248.418533,362.850311 248.396194,362.166962 
z"/>
<path fill="#120505" opacity="1.000000" stroke="none" 
	d="
M364.788361,278.236267 
	C359.498993,278.242493 354.677551,278.110443 349.867889,278.290802 
	C346.783203,278.406464 345.768280,277.183533 345.881805,274.199219 
	C346.058502,269.555450 346.016144,264.898315 345.906677,260.250610 
	C345.842896,257.543274 346.838501,256.232544 349.653503,256.316528 
	C355.127289,256.479858 360.623871,256.280487 366.075165,256.698792 
	C373.840759,257.294678 377.439758,261.120087 377.220306,267.879211 
	C377.005371,274.500793 373.093323,277.886871 364.788361,278.236267 
z"/>
<path fill="#100505" opacity="1.000000" stroke="none" 
	d="
M502.489319,274.259521 
	C515.287048,276.089996 518.321716,289.259735 514.518616,298.367584 
	C512.228210,303.852783 507.988892,306.945007 501.788330,307.256012 
	C495.669800,307.562836 491.089905,305.167480 488.021881,300.006165 
	C484.391968,293.899536 484.555603,287.543121 487.896179,281.447632 
	C490.898651,275.968994 495.830048,273.618347 502.489319,274.259521 
z"/>
<path fill="#0B0B0B" opacity="1.000000" stroke="none" 
	d="
M207.431549,274.128082 
	C214.822388,276.075928 219.018326,280.551483 219.861618,287.747894 
	C220.673981,294.680573 219.506332,301.089478 213.138016,305.288391 
	C208.138687,308.584686 201.075455,308.293793 196.246445,304.846161 
	C190.900894,301.029724 188.321182,293.094788 190.149597,286.092896 
	C191.962967,279.148682 196.678543,274.697357 203.056656,274.017487 
	C204.364410,273.878052 205.703369,274.031067 207.431549,274.128082 
z"/>
<path fill="#1C0505" opacity="1.000000" stroke="none" 
	d="
M436.367645,273.445190 
	C444.094910,275.822937 446.859528,279.068207 446.626007,285.556580 
	C437.945862,285.556580 429.246613,285.556580 420.547455,285.556580 
	C420.427521,277.813171 426.703094,272.945526 436.367645,273.445190 
z"/>
<path fill="#111111" opacity="1.000000" stroke="none" 
	d="
M278.926270,286.013733 
	C272.466461,285.995239 266.493988,285.981354 260.521637,285.946869 
	C260.205414,285.945038 259.890167,285.769470 259.574982,285.673035 
	C259.336975,278.058044 266.954956,272.981628 274.021210,273.227325 
	C281.247528,273.478485 286.519379,278.623566 286.840210,286.014008 
	C284.356110,286.014008 281.884857,286.014008 278.926270,286.013733 
z"/>
<path fill="#0C0C0C" opacity="1.000000" stroke="none" 
	d="
M146.488312,276.228363 
	C157.159805,282.833344 156.670959,300.794495 144.657883,306.219482 
	C138.399338,309.045746 131.073792,307.391571 126.470947,302.180145 
	C121.687057,296.763733 121.094246,287.591919 125.113548,281.178864 
	C128.650879,275.534821 135.613205,272.688416 142.008972,274.372864 
	C143.439728,274.749695 144.779709,275.471130 146.488312,276.228363 
z"/>
<path fill="#4B0606" opacity="1.000000" stroke="none" 
	d="
M282.019470,355.171539 
	C281.794861,352.293671 282.618256,350.958679 285.322784,351.006500 
	C290.792694,351.103210 296.265503,351.035339 302.086700,351.035339 
	C302.086700,351.947144 302.157959,352.700043 302.074677,353.435486 
	C301.657776,357.116974 301.960907,363.611328 300.622375,363.972595 
	C295.502594,365.354584 289.846619,364.901917 284.400604,364.759583 
	C283.587006,364.738342 282.383789,362.804504 282.141418,361.598541 
	C281.755676,359.679443 282.026550,357.628418 282.019470,355.171539 
M296.466949,352.088959 
	C293.562988,352.088959 290.659058,352.088959 287.755096,352.088959 
	C287.448090,352.536591 287.141083,352.984192 286.834076,353.431824 
	C288.172882,354.958740 289.511719,356.485626 290.850555,358.012543 
	C292.943726,356.145020 295.036926,354.277496 296.466949,352.088959 
z"/>
<path fill="#100505" opacity="1.000000" stroke="none" 
	d="
M296.798523,352.249451 
	C295.036926,354.277496 292.943726,356.145020 290.850555,358.012543 
	C289.511719,356.485626 288.172882,354.958740 286.834076,353.431824 
	C287.141083,352.984192 287.448090,352.536591 287.755096,352.088959 
	C290.659058,352.088959 293.562988,352.088959 296.798523,352.249451 
z"/>
</svg>