<?xml version="1.0" ?><svg style="enable-background:new 0 0 48 48;" version="1.1" viewBox="0 0 48 48" xml:space="preserve" xmlns="http://www.w3.org/2000/svg" xmlns:xlink="http://www.w3.org/1999/xlink"><g id="Icons"><g id="Icons_6_"><path d="M30.7772,18.38428c1.1832-0.0265,2.3753,0.362,3.064,1.0685    c0.0972,0.1059,0.1943,0.2119,0.2738,0.3355c0.8565,1.2009,0.83,2.6667,0.6622,3.9471c-0.1589,1.2539-0.936,2.4459-1.5099,3.6292    c-0.3091,0.6446-0.2914,1.1302,0.3708,1.4305c0.6093,0.2649,1.2804,0.3797,1.9073,0.6093    c0.9537,0.362,2.0486,0.5563,2.8169,1.2097c0.9624,0.8212,0.7417,2.2164,0.7858,3.3996h-7.2142l-0.0003,0.0012    c0-1.5834,0.1293-3.3811-0.9115-4.7062c-0.6284-0.8001-1.8135-1.5439-2.7453-1.8605c0,0-0.1309-0.2466-0.2104-0.4144    c-0.5828-1.1832-1.1215-2.0445-1.2805-3.2984c-0.1677-1.2804-0.2031-2.7462,0.6623-3.9471    c0.0795-0.1236,0.1678-0.2296,0.2737-0.3355C28.4107,18.74628,29.5939,18.35778,30.7772,18.38428" style="fill:#0097D3;"/><path d="M19.5717,13.98688c1.5188-0.0353,3.0375,0.4592,3.9206,1.3687    c0.1324,0.1324,0.2472,0.2737,0.3532,0.4238c1.1037,1.5453,1.0596,3.4173,0.8477,5.0597    c-0.2031,1.6071-1.1921,3.1347-1.9338,4.6535c-0.3974,0.8212-0.3709,1.4481,0.4768,1.8278    c0.777,0.3444,1.6424,0.4857,2.446,0.7859c0.6887,0.2649,1.4304,0.4503,2.128,0.7241h0.0089    c0.5386,0.2031,1.0419,0.4591,1.4658,0.8212c1.245,1.0596,0.9625,2.8521,1.0066,4.3621H22.415H8.8519    c0.0441-1.51-0.2384-3.3025,1.0066-4.3621c0.9802-0.8389,2.3841-1.0773,3.6027-1.5453c0.8036-0.3002,1.6689-0.4415,2.446-0.7859    c0.8477-0.3797,0.8742-1.0066,0.4768-1.8278c-0.7417-1.5188-1.7307-3.0464-1.9338-4.6535    c-0.2119-1.6424-0.2561-3.5144,0.8477-5.0597c0.1059-0.1501,0.2207-0.2914,0.3532-0.4238    C16.5341,14.44608,18.0529,13.95158,19.5717,13.98688" style="fill:#0CB2E5;"/></g></g></svg>